<?xml version="1.0" encoding="UTF-8"?><svg id="Layer_1" xmlns="http://www.w3.org/2000/svg" xmlns:xlink="http://www.w3.org/1999/xlink" viewBox="0 0 300 62.87424"><defs><style>.cls-1{fill:url(#linear-gradient-2);}.cls-2{fill:url(#linear-gradient-10);}.cls-3{fill:url(#linear-gradient-12);}.cls-4{fill:#fff;}.cls-5{fill:url(#linear-gradient-4);}.cls-6{fill:url(#linear-gradient-3);}.cls-7{fill:url(#linear-gradient-5);}.cls-8{fill:url(#linear-gradient-8);}.cls-9{fill:url(#linear-gradient-7);}.cls-10{fill:url(#linear-gradient-9);}.cls-11{fill:url(#linear-gradient-11);}.cls-12{fill:url(#linear-gradient-6);}.cls-13{fill:url(#linear-gradient);}</style><linearGradient id="linear-gradient" x1="16.46285" y1="66.69226" x2="52.06484" y2="31.09027" gradientUnits="userSpaceOnUse"><stop offset="0" stop-color="#59c4f0"/><stop offset=".20451" stop-color="#5cc5f0"/><stop offset=".36059" stop-color="#65c8f1"/><stop offset=".50065" stop-color="#76cef2"/><stop offset=".63131" stop-color="#8dd6f4"/><stop offset=".75545" stop-color="#aae1f7"/><stop offset=".87473" stop-color="#cfeefa"/><stop offset=".98807" stop-color="#fafdfe"/><stop offset="1" stop-color="#fff"/></linearGradient><linearGradient id="linear-gradient-2" x1="21.39393" y1="71.62334" x2="56.99592" y2="36.02135" xlink:href="#linear-gradient"/><linearGradient id="linear-gradient-3" x1="23.20027" y1="73.42968" x2="58.80226" y2="37.82769" xlink:href="#linear-gradient"/><linearGradient id="linear-gradient-4" x1="22.90639" y1="73.13579" x2="58.50837" y2="37.53381" xlink:href="#linear-gradient"/><linearGradient id="linear-gradient-5" x1="20.5641" y1="70.79351" x2="56.16609" y2="35.19152" xlink:href="#linear-gradient"/><linearGradient id="linear-gradient-6" x1="16.49495" y1="66.72436" x2="52.09694" y2="31.12237" xlink:href="#linear-gradient"/><linearGradient id="linear-gradient-7" x1="13.5131" y1="63.7425" x2="49.11508" y2="28.14051" xlink:href="#linear-gradient"/><linearGradient id="linear-gradient-8" x1="-7.03833" y1="43.19107" x2="28.56365" y2="7.58909" gradientUnits="userSpaceOnUse"><stop offset="0" stop-color="#ed3724"/><stop offset="1" stop-color="#d6ca69"/></linearGradient><linearGradient id="linear-gradient-9" x1="-9.90178" y1="40.32763" x2="25.70021" y2="4.72564" xlink:href="#linear-gradient-8"/><linearGradient id="linear-gradient-10" x1="-2.53582" y1="47.69359" x2="33.06617" y2="12.0916" xlink:href="#linear-gradient-8"/><linearGradient id="linear-gradient-11" x1="3.20345" y1="53.43285" x2="38.80543" y2="17.83087" xlink:href="#linear-gradient-8"/><linearGradient id="linear-gradient-12" x1="9.71693" y1="59.94633" x2="45.31891" y2="24.34435" xlink:href="#linear-gradient-8"/></defs><path class="cls-13" d="M20.3117,57.83782c-1.808.83515-1.69012,1.76907.26142,2.16634,4.2459.86434,8.5264-1.10031,12.09913-4.2162,3.11773-2.83394,5.73076-6.12877,7.6074-9.87374.28916-.57704-.21719-1.24442-.84792-1.10737-.0131.00285-.02623.00568-.0394.00851-3.47421.74618-3.25585,3.22613-9.10997,7.42748-2.24595,1.61186-5.38569,3.47708-9.97067,5.59498Z"/><path class="cls-1" d="M32.49309,60.96033c-.96493,1.0282-.60479,1.91011.80527,1.91281,3.9476.00754,6.96885-3.43207,9.00547-7.74857,1.77283-3.75742,2.79958-8.17928,3.04182-11.57026.04543-.63589-.64344-1.05811-1.1811-.71555h0c-.88303.56261-1.81232,1.85177-2.08637,2.8623-.70607,2.60358-2.00086,5.21777-3.60347,7.70977-1.74895,2.71955-3.86452,5.29359-5.98161,7.5495Z"/><path class="cls-6" d="M44.49388,58.14814c-.65989,1.84807.14644,2.48127,1.73019,1.32259,2.96918-2.17228,4.13921-5.42775,4.2971-9.01001.14899-3.38033-.60328-7.05165-1.59555-10.37839-.40667-1.36345-2.44768-.28093-2.19672,2.8109.12526,1.54315.44266,3.75375-.12956,7.37698-.33198,2.10202-.96338,4.6795-2.10545,7.87794Z"/><path class="cls-5" d="M55.06106,50.90032c1.36728-2.22843,1.83743-4.65531-.29649-8.98186-.73292-1.486-1.77302-3.19609-3.18947-5.1992-.96423-1.36359-1.9422-1.12556-2.07922.53887-.12493,1.51751,1.18858,2.63461,2.30194,6.65012.44982,1.62233.86696,3.71777,1.14337,6.50387.18709,1.88579,1.12881,2.10345,2.11987.4882Z"/><path class="cls-7" d="M51.13138,34.15317c.88375,1.21817,2.88012,2.55606,5.12856,6.28821,1.15872,1.92333,2.1155,1.66883,2.12359-.57656.00612-1.69916-.54207-3.03074-2.15168-4.65569-.96577-.97497-2.31365-2.05556-4.15318-3.38453-1.00973-.72948-1.56422,1.47818-.94729,2.32857Z"/><path class="cls-12" d="M54.13983,31.42011c1.82354,1.05647,2.51367.40646,1.60067-1.49298-.66744-1.38856-1.51573-1.77877-3.92027-2.48667-.54624-.16081-1.06794.30008-.98709.86373.11602.80876.68908,1.5994,3.30669,3.11592Z"/><path class="cls-9" d="M50.72212,25.83574c.91519.10595,1.82792.2609,2.73197.46315-.6593-.76051-1.39677-1.39129-2.23488-1.90722-.44643-.27482-.96763-.0414-1.13617.36571-.17576.42456.09332,1.01517.63908,1.07836Z"/><path class="cls-4" d="M46.144,24.27253c-2.39538.17713-4.56353.81326-6.02661,1.86763-2.03631,1.46746-2.28225,3.44991-1.3406,4.70314,1.03278,1.37452,3.2104,1.49398,4.96884-.71307.94223-1.18261,1.80608-3.05753,2.39838-5.8577Z"/><path class="cls-4" d="M62.35457.00109c-1.31706,4.13293-3.98625,6.60522-7.60055,8.51611-3.66392,1.94825-8.0453,3.60794-12.11396,5.67032,2.13999-3.70537,2.72361-8.27116.41063-12.09113-.80047,9.60383-7.06126,11.38485-12.29368,18.25774-3.29414,4.23061-4.00991,10.18385-1.06225,14.76826.00072-.00673.00168-.01334.0024-.02006.00132.00396.00204.00793.00336.01189,1.34313-3.99514,3.33307-7.2196,6.58888-9.62774,6.41745-4.79477,15.36233-7.11604,21.56329-12.70263C61.36441,9.81588,64.05787,4.53696,62.35457.00109Z"/><polygon class="cls-4" points="88.96468 31.54628 78.76522 14.63815 73.55129 14.63815 73.55129 41.87453 79.42645 41.87453 79.42645 25.81012 87.44195 38.95666 90.24353 38.95666 98.26733 25.62848 98.33689 41.87453 104.21204 41.87453 104.21204 14.63815 98.95871 14.63815 88.96468 31.54628"/><path class="cls-4" d="M113.31646,11.25319c-1.14178,0-2.0625.32485-2.76314.97262-.69967.64874-1.05047,1.45317-1.05047,2.41234,0,.96013.3508,1.76456,1.05047,2.41234.70064.64874,1.62136.97262,2.76314.97262,1.14082,0,2.06154-.33062,2.76218-.99185s1.05047-1.49834,1.05047-2.50941c0-.96013-.35657-1.74438-1.0697-2.35467-.71409-.60837-1.62809-.914-2.74296-.914Z"/><rect class="cls-4" x="110.28134" y="20.94195" width="6.06929" height="20.93258"/><path class="cls-4" d="M139.17079,21.62241c-1.31093-.66123-2.79582-.99185-4.45562-.99185-1.78955,0-3.38497.37579-4.78528,1.12832-.83291.44727-1.53679,1.02296-2.14035,1.69909v-2.51602h-5.79731v20.93258h6.06929v-10.35c0-1.32246.21432-2.38639.64201-3.18986.42865-.80443,1.02452-1.41377,1.79051-1.82896.76407-.41519,1.62713-.62279,2.58726-.62279,1.34841,0,2.39312.4027,3.1322,1.20617.73908.80443,1.1091,2.04905,1.1091,3.73576v11.04967h6.06929v-11.98385c0-2.1269-.37579-3.87128-1.12832-5.23314s-1.78379-2.3739-3.09279-3.03513Z"/><path class="cls-4" d="M164.18801,21.95302c-1.64731-.88132-3.49549-1.32246-5.54454-1.32246-2.1269,0-4.04043.46036-5.73868,1.38109-1.69921.92073-3.02167,2.19802-3.96835,3.83283-.94764,1.63386-1.42049,3.48876-1.42049,5.56376s.49208,3.92318,1.47816,5.54454,2.3739,2.89865,4.16345,3.83187c1.78955.93418,3.87801,1.40127,6.2644,1.40127,1.89335,0,3.56661-.29217,5.01978-.87555,1.45221-.58338,2.65838-1.42049,3.61851-2.50941l-3.23023-3.50222c-.69967.67469-1.47239,1.18118-2.31431,1.51756-.84384.33734-1.80974.50553-2.89865.50553-1.27152,0-2.3614-.22682-3.26867-.68045-.90823-.45364-1.62136-1.1091-2.14035-1.96543-.28424-.46841-.47358-.99389-.60188-1.55601h15.81597c.02499-.25853.05094-.53821.07785-.83615.02499-.29794.03844-.56416.03844-.79771,0-2.25664-.48055-4.1894-1.43972-5.79731-.96013-1.60887-2.26337-2.85348-3.91068-3.73576ZM155.93992,25.90215c.79098-.45364,1.70498-.68045,2.74296-.68045,1.03702,0,1.94525.22682,2.72373.68045.77752.4546,1.38686,1.08315,1.82896,1.88758.28869.52764.43982,1.13937.52812,1.78955h-10.21376c.10164-.64357.2601-1.2487.54182-1.77033.44018-.81693,1.05624-1.45221,1.84818-1.90681Z"/><path class="cls-4" d="M179.38287,23.7272v-2.78524h-5.79731v20.93258h6.06929v-9.88291c0-1.99715.5065-3.47531,1.51756-4.43544,1.01215-.95917,2.37402-1.43972,4.08572-1.43972.2076,0,.42096.01346.64201.03844.22009.02691.44787.06535.68141.11725v-5.64161c-1.97216,0-3.64542.38251-5.0199,1.14754-.88973.49496-1.60442,1.15547-2.17879,1.94909Z"/><polygon class="cls-4" points="199.88115 35.20335 194.09058 20.94195 187.86558 20.94195 196.65861 41.87453 202.8836 41.87453 211.71604 20.94195 205.91873 20.94195 199.88115 35.20335"/><path class="cls-4" d="M221.79404,20.63056c-1.66077,0-3.29462.21336-4.90253.64201-1.60887.42769-2.98323,1.0572-4.12404,1.88662l2.13939,4.2413c.77848-.59684,1.70594-1.0697,2.78236-1.42049,1.07546-.34984,2.17207-.52476,3.28789-.52476,1.63386,0,2.84579.36329,3.63773,1.08892.79098.72659,1.18695,1.73861,1.18695,3.03513v.03844h-4.78624c-2.15285,0-3.8905.26046-5.21392.77848-1.32246.51899-2.28932,1.2523-2.89865,2.19898s-.914,2.02983-.914,3.24849c0,1.19368.31716,2.2701.9534,3.22927.63528.96013,1.53679,1.71843,2.70355,2.27587,1.16773.55839,2.55458.83711,4.16345.83711,1.84145,0,3.34652-.35657,4.51329-1.0697.7965-.48643,1.40992-1.11967,1.86836-1.87809v2.63639h5.68005v-11.94541c0-3.18986-.88228-5.53781-2.64589-7.04192-1.7636-1.50411-4.24034-2.25664-7.43116-2.25664ZM224.06991,37.39969c-.81693.46709-1.74438.70064-2.7814.70064-1.03798,0-1.86163-.22682-2.47097-.68045-.61029-.45364-.914-1.07066-.914-1.84818,0-.70064.26526-1.28402.79675-1.75111s1.51084-.70064,2.93806-.70064h4.16345v2.14035c-.33734.96013-.91496,1.67326-1.73189,2.13939Z"/><polygon class="cls-4" points="257.23911 14.63815 234.71112 14.63815 234.71112 18.02312 244.04908 18.02312 244.04908 41.87453 247.90114 41.87453 247.90114 18.02312 257.23911 18.02312 257.23911 14.63815"/><path class="cls-4" d="M272.53008,22.38071c-1.53102-.88132-3.29462-1.32246-5.29177-1.32246-1.9712,0-3.74153.44787-5.31099,1.34265s-2.80158,2.13362-3.69636,3.71558-1.34265,3.39842-1.34265,5.44747.46036,3.86551,1.38205,5.44651c.91976,1.58292,2.21724,2.82849,3.8905,3.73576,1.67326.90823,3.61178,1.36187,5.81653,1.36187,1.71267,0,3.26195-.28544,4.64976-.85633,1.38782-.56993,2.54882-1.40031,3.48204-2.49019l-2.06154-2.41234c-.75253.83038-1.62809,1.45317-2.62666,1.8674-.99857.41615-2.10767.62279-3.32634.62279-1.47912,0-2.78909-.29794-3.9299-.89478-1.14178-.59588-2.02983-1.43299-2.66511-2.50941-.46949-.79398-.76215-1.67026-.88517-2.62666h16.7403c.02691-.18069.04613-.37579.05767-.58338s.01922-.38924.01922-.54494c0-2.1269-.43441-3.98757-1.30228-5.58298-.86979-1.59541-2.06923-2.83426-3.59929-3.71654ZM263.77549,25.08522c1.01203-.58338,2.16534-.87555,3.46281-.87555,1.32342,0,2.48346.29217,3.48204.87555s1.78379,1.39454,2.35467,2.43156c.42817.77993.6324,1.66677.72466,2.60744h-13.14053c.11101-.9337.32317-1.81466.74244-2.58726.57089-1.05047,1.36187-1.86836,2.3739-2.45174Z"/><path class="cls-4" d="M294.68901,38.11955c-.97262.48055-2.01637.71986-3.13124.71986-1.34937,0-2.5565-.29794-3.61947-.89478-1.06297-.59588-1.90681-1.43972-2.52959-2.52863-.62087-1.08988-.93226-2.3739-.93226-3.85206,0-1.47912.31139-2.75641.93226-3.83283.62279-1.07642,1.46663-1.91257,2.52959-2.50941s2.2701-.89478,3.61947-.89478c1.11487,0,2.15861.24027,3.13124.71986s1.79532,1.22539,2.47193,2.23646l2.83906-1.828c-.80347-1.45317-1.93948-2.54882-3.40419-3.28789-1.46663-.73908-3.13124-1.1091-4.9996-1.1091-2.10095,0-3.97508.44787-5.62239,1.34265s-2.9371,2.13362-3.87128,3.71558-1.40127,3.39842-1.40127,5.44747.46709,3.86551,1.40127,5.44651c.93418,1.58292,2.22397,2.82849,3.87128,3.73576,1.64731.90823,3.52144,1.36187,5.62239,1.36187,1.86836,0,3.53297-.38251,4.9996-1.14754,1.4647-.76503,2.60071-1.86163,3.40419-3.28789l-2.83906-1.79051c-.67661,1.01203-1.4993,1.75784-2.47193,2.23742Z"/><path class="cls-4" d="M73.55133,52.32133v-5.41496h.77302v5.41496h-.77302Z"/><path class="cls-4" d="M76.7232,52.32133v-5.41496h.77302v5.41496h-.77302ZM77.4193,49.90806v-.67302h3.25648v.67302h-3.25648ZM80.60655,52.32133v-5.41496h.77302v5.41496h-.77302Z"/><path class="cls-4" d="M83.77842,52.32133v-5.41496h2.11137c.70187,0,1.25375.16633,1.65564.499.40285.33267.6038.79513.6038,1.38835,0,.39228-.09038.72879-.27113,1.00954s-.43843.49611-.77302.6461c-.33555.14999-.74033.22402-1.21529.22402h-1.68641l.34805-.35574v2.00369h-.77302ZM84.55143,50.39552l-.34805-.37978h1.66333c.49515,0,.87012-.10672,1.12587-.32113.25479-.21344.38266-.51438.38266-.90089s-.12787-.68552-.38266-.89705c-.25575-.21152-.63072-.31728-1.12587-.31728h-1.66333l.34805-.38651v3.20263ZM87.39832,52.32133l-1.37682-1.96523h.82782l1.3922,1.96523h-.8432Z"/><path class="cls-4" d="M94.60737,52.38286c-.41247,0-.80667-.0625-1.18356-.18941-.37593-.12595-.67302-.2894-.88935-.49131l.28652-.60284c.20575.18076.46919.32978.7884.44804.32017.11922.65283.17787.998.17787.3144,0,.57015-.03557.76629-.10768s.34036-.17114.43266-.29805c.09326-.12595.13941-.26921.13941-.42881,0-.18652-.06057-.33555-.18172-.449s-.27882-.20479-.47208-.27498c-.19325-.06923-.40574-.1298-.63841-.18172-.23171-.05096-.46535-.11249-.69995-.18172s-.44804-.15864-.64226-.26729c-.19325-.10768-.34901-.25383-.46727-.4365-.11922-.18268-.17787-.4192-.17787-.70764,0-.27882.07307-.53553.22018-.77013s.37401-.42304.68072-.56438c.30671-.1423.69706-.21344,1.17202-.21344.3144,0,.62687.04134.93647.12403.30863.08269.57688.20095.80378.35574l-.25479.61918c-.23267-.1548-.47689-.26729-.73552-.33651-.25767-.06923-.50765-.1048-.74994-.1048-.30478,0-.55476.03942-.74994.11634-.19614.07788-.3394.18076-.42977.30959s-.13557.27306-.13557.43266c0,.19133.06057.34324.18172.45669s.27882.20383.47208.27113.40574.12787.63841.18172c.23171.05384.46535.11441.69995.18172s.449.1548.64226.26344c.19325.10768.34901.2519.46823.43266.11826.18076.17787.41247.17787.6961,0,.27402-.07499.52784-.22498.76244-.14903.2346-.37978.42304-.69225.56438-.31151.1423-.70475.21248-1.17972.21248Z"/><path class="cls-4" d="M98.60706,52.32133v-5.41496h2.11137c.47496,0,.87974.07499,1.21529.22402.33459.14999.59226.36632.77302.64995s.27113.62111.27113,1.01338-.09038.72879-.27113,1.00954-.43843.49804-.77302.64995c-.33555.15191-.74033.22787-1.21529.22787h-1.68641l.34805-.36343v2.00369h-.77302ZM99.38008,50.39552l-.34805-.38747h1.66333c.49515,0,.87012-.10576,1.12587-.31728.25479-.21056.38266-.51054.38266-.89705s-.12787-.68552-.38266-.89705c-.25575-.21152-.63072-.31728-1.12587-.31728h-1.66333l.34805-.38651v3.20263Z"/><path class="cls-4" d="M104.88926,52.32133v-5.41496h3.82182v.67302h-3.0488v4.06891h3.15648v.67302h-3.9295ZM105.59305,49.90037v-.65764h2.78536v.65764h-2.78536Z"/><path class="cls-4" d="M110.36575,52.32133v-.52592l3.64394-4.51791.08461.3019h-3.67471v-.67302h4.37081v.52592l-3.6276,4.51791-.09326-.3019h3.82182v.67302h-4.52561Z"/><path class="cls-4" d="M116.7018,52.32133v-5.41496h.77302v5.41496h-.77302Z"/><path class="cls-4" d="M119.05353,52.32133l2.45269-5.41496h.76532l2.46038,5.41496h-.81244l-2.18925-4.9823h.30959l-2.18925,4.9823h-.79705ZM120.09768,50.96759l.20864-.61918h3.04784l.22498.61918h-3.48146Z"/><path class="cls-4" d="M126.3097,52.32133v-5.41496h.77302v4.74194h2.93246v.67302h-3.70548Z"/><path class="cls-4" d="M131.67851,52.32133v-5.41496h.77302v5.41496h-.77302Z"/><path class="cls-4" d="M136.42717,52.38286c-.41247,0-.80667-.0625-1.18356-.18941-.37593-.12595-.67302-.2894-.88935-.49131l.28652-.60284c.20575.18076.46919.32978.7884.44804.32017.11922.65283.17787.998.17787.3144,0,.57015-.03557.76629-.10768s.34036-.17114.43266-.29805c.09326-.12595.13941-.26921.13941-.42881,0-.18652-.06057-.33555-.18172-.449s-.27882-.20479-.47208-.27498c-.19325-.06923-.40574-.1298-.63841-.18172-.23171-.05096-.46535-.11249-.69995-.18172s-.44804-.15864-.64226-.26729c-.19325-.10768-.34901-.25383-.46727-.4365-.11922-.18268-.17787-.4192-.17787-.70764,0-.27882.07307-.53553.22018-.77013s.37401-.42304.68072-.56438c.30671-.1423.69706-.21344,1.17202-.21344.3144,0,.62687.04134.93647.12403.30863.08269.57688.20095.80378.35574l-.25479.61918c-.23267-.1548-.47689-.26729-.73552-.33651-.25767-.06923-.50765-.1048-.74994-.1048-.30478,0-.55476.03942-.74994.11634-.19614.07788-.3394.18076-.42977.30959s-.13557.27306-.13557.43266c0,.19133.06057.34324.18172.45669s.27882.20383.47208.27113.40574.12787.63841.18172c.23171.05384.46535.11441.69995.18172s.449.1548.64226.26344c.19325.10768.34901.2519.46823.43266.11826.18076.17787.41247.17787.6961,0,.27402-.07499.52784-.22498.76244-.14903.2346-.37978.42304-.69225.56438-.31151.1423-.70475.21248-1.17972.21248Z"/><path class="cls-4" d="M141.42486,52.32133v-4.74194h-1.85659v-.67302h4.47946v.67302h-1.85659v4.74194h-.76629Z"/><path class="cls-4" d="M148.51853,52.32133v-5.41496h3.82182v.67302h-3.0488v4.74194h-.77302ZM149.21463,50.13208v-.66533h2.79305v.66533h-2.79305Z"/><path class="cls-4" d="M156.44772,52.38286c-.71148,0-1.27105-.20287-1.67871-.61053s-.61053-1.00281-.61053-1.78736v-3.0786h.77302v3.04784c0,.6038.13268,1.04415.39901,1.32297.26536.27786.64033.41727,1.12491.41727.49035,0,.8682-.13941,1.13356-.41727.26536-.27882.39805-.71917.39805-1.32297v-3.04784h.7509v3.0786c0,.78455-.20287,1.3797-.60764,1.78736s-.96531.61053-1.68256.61053ZM155.73623,46.33334c-.10865,0-.20095-.03654-.27882-.11153-.07692-.07499-.11538-.16922-.11538-.28267,0-.11826.03846-.21537.11538-.29036.07788-.07403.17018-.11153.27882-.11153s.20095.0375.27882.11153c.07692.07499.11538.1721.11538.29036,0,.11345-.03846.20768-.11538.28267-.07788.07499-.17018.11153-.27882.11153ZM157.17458,46.33334c-.10768,0-.20095-.03654-.27786-.11153-.07788-.07499-.11634-.16922-.11634-.28267,0-.11826.03846-.21537.11634-.29036.07692-.07403.17018-.11153.27786-.11153.10865,0,.20191.0375.27882.11153.07788.07499.11634.1721.11634.29036,0,.11345-.03846.20768-.11634.28267-.07692.07499-.17018.11153-.27882.11153Z"/><path class="cls-4" d="M161.09735,52.32133v-5.41496h2.11137c.70187,0,1.25375.16633,1.65564.499.40285.33267.6038.79513.6038,1.38835,0,.39228-.09038.72879-.27113,1.00954s-.43843.49611-.77302.6461c-.33555.14999-.74033.22402-1.21529.22402h-1.68641l.34805-.35574v2.00369h-.77302ZM161.87037,50.39552l-.34805-.37978h1.66333c.49515,0,.87012-.10672,1.12587-.32113.25479-.21344.38266-.51438.38266-.90089s-.12787-.68552-.38266-.89705c-.25575-.21152-.63072-.31728-1.12587-.31728h-1.66333l.34805-.38651v3.20263ZM164.71726,52.32133l-1.37682-1.96523h.82782l1.3922,1.96523h-.8432Z"/><path class="cls-4" d="M170.34951,52.32133v-5.41496h.77302v5.41496h-.77302Z"/><path class="cls-4" d="M173.52042,52.32133v-5.41496h.63457l3.58145,4.44773h-.33267v-4.44773h.77302v5.41496h-.6336l-3.58241-4.44773h.33267v4.44773h-.77302Z"/><path class="cls-4" d="M181.65055,52.32133v-4.74194h-1.85659v-.67302h4.47946v.67302h-1.85659v4.74194h-.76629Z"/><path class="cls-4" d="M185.8906,52.32133v-5.41496h3.82182v.67302h-3.0488v4.06891h3.15648v.67302h-3.9295ZM186.59439,49.90037v-.65764h2.78536v.65764h-2.78536Z"/><path class="cls-4" d="M191.84686,52.32133v-5.41496h.77302v4.74194h2.93246v.67302h-3.70548Z"/><path class="cls-4" d="M197.21567,52.32133v-5.41496h.77302v4.74194h2.93246v.67302h-3.70548Z"/><path class="cls-4" d="M202.58448,52.32133v-5.41496h.77302v5.41496h-.77302Z"/><path class="cls-4" d="M208.20039,52.38286c-.41727,0-.80186-.06826-1.15279-.20479-.34997-.13653-.65476-.32978-.91243-.57976s-.45862-.54323-.6038-.87878c-.14422-.33459-.21633-.70379-.21633-1.10568s.07211-.77109.21633-1.10664c.14518-.33459.34709-.62784.60764-.87782s.5663-.44323.91724-.57976c.34997-.13653.73744-.20575,1.15952-.20575.42881,0,.82013.07019,1.17587.2096.3567.13941.65764.34805.9057.62591l-.47977.47977c-.2221-.21633-.46343-.37497-.72302-.47592-.26056-.09999-.54323-.14999-.84705-.14999-.30959,0-.59707.05096-.86339.15383-.26536.10384-.49419.24806-.68841.43362-.19325.18556-.34228.40574-.44804.66149s-.15864.53265-.15864.83167c0,.29421.05288.56822.15864.82397.10576.25479.25479.47689.44804.66533.19422.18845.42208.33363.68456.4365.26344.10384.54996.1548.85955.1548.28844,0,.56534-.04519.83167-.13557.26536-.08942.5115-.24037.7384-.45189l.44131.58745c-.26825.22691-.58169.39901-.94031.51438-.35863.11634-.72879.17402-1.11049.17402ZM210.25119,51.69446l-.74321-.09999v-2.01138h.74321v2.11137Z"/><path class="cls-4" d="M212.50101,52.32133v-5.41496h3.82182v.67302h-3.0488v4.06891h3.15648v.67302h-3.9295ZM213.2048,49.90037v-.65764h2.78536v.65764h-2.78536Z"/><path class="cls-4" d="M218.45824,52.32133v-5.41496h.63457l3.58145,4.44773h-.33267v-4.44773h.77302v5.41496h-.6336l-3.58241-4.44773h.33267v4.44773h-.77302Z"/><path class="cls-4" d="M226.58837,52.32133v-4.74194h-1.85659v-.67302h4.47946v.67302h-1.85659v4.74194h-.76629Z"/><path class="cls-4" d="M230.82746,52.32133v-5.41496h3.82182v.67302h-3.0488v4.06891h3.15648v.67302h-3.9295ZM231.53125,49.90037v-.65764h2.78536v.65764h-2.78536Z"/><path class="cls-4" d="M238.81818,52.32133l2.45269-5.41496h.76532l2.46038,5.41496h-.81244l-2.18925-4.9823h.30959l-2.18925,4.9823h-.79705ZM239.86233,50.96759l.20864-.61918h3.04784l.22498.61918h-3.48146Z"/><path class="cls-4" d="M248.20206,52.38286c-.71148,0-1.27105-.20287-1.67871-.61053s-.61053-1.00281-.61053-1.78736v-3.0786h.77302v3.04784c0,.6038.13268,1.04415.39901,1.32297.26536.27786.64033.41727,1.12491.41727.49035,0,.8682-.13941,1.13356-.41727.26536-.27882.39805-.71917.39805-1.32297v-3.04784h.7509v3.0786c0,.78455-.20287,1.3797-.60764,1.78736s-.96531.61053-1.68256.61053Z"/><path class="cls-4" d="M253.82566,52.32133v-4.74194h-1.85659v-.67302h4.47946v.67302h-1.85659v4.74194h-.76629Z"/><path class="cls-4" d="M260.43187,52.38286c-.41247,0-.79513-.06923-1.14799-.20864-.35382-.13941-.65956-.33363-.91724-.58361s-.45862-.54323-.6038-.87878c-.14422-.33459-.21633-.70091-.21633-1.09799s.07211-.7634.21633-1.09895c.14518-.33459.34613-.62784.6038-.87782s.56246-.4442.91243-.58361c.35093-.13941.73552-.2096,1.15279-.2096.41247,0,.79417.06923,1.1451.20575s.65476.32978.91339.57976c.25767.24998.45766.54419.59899.88166.1423.33843.21248.70571.21248,1.1028,0,.40189-.07019.77109-.21248,1.10568-.14134.33555-.34132.6288-.59899.87878-.25863.24998-.56246.44323-.91339.57976s-.73263.20479-1.1451.20479ZM260.42418,51.69446c.30478,0,.58457-.05096.83936-.1548.25575-.10288.47689-.24806.66533-.4365s.33555-.40862.44131-.66149.15864-.5288.15864-.82782-.05288-.57399-.15864-.82397-.25286-.47016-.44131-.66149c-.18845-.19037-.40958-.33747-.66533-.44131-.25479-.10288-.53457-.15383-.83936-.15383-.29902,0-.57592.05096-.83167.15383-.25479.10384-.47785.25094-.66918.44131-.19037.19133-.33843.41151-.4442.66149s-.15864.52496-.15864.82397.05288.57495.15864.82782.25383.47304.4442.66149c.19133.18845.41439.33363.66918.4365.25575.10384.53265.1548.83167.1548Z"/><path class="cls-4" d="M265.25938,52.32133v-5.41496h.63457l2.42866,4.09199h-.34036l2.39789-4.09199h.63457l.00769,5.41496h-.74225l-.00769-4.24678h.17787l-2.13541,3.58914h-.35574l-2.15079-3.58914h.19325v4.24678h-.74225Z"/><path class="cls-4" d="M272.60111,52.32133l2.45269-5.41496h.76532l2.45942,5.41496h-.81147l-2.18925-4.9823h.30863l-2.18829,4.9823h-.79705ZM273.64526,50.96759l.20864-.61918h3.04784l.22306.61918h-3.47953Z"/><path class="cls-4" d="M280.66298,52.32133v-4.74194h-1.85755v-.67302h4.47849v.67302h-1.85562v4.74194h-.76532Z"/><path class="cls-4" d="M284.89918,52.32133v-5.41496h.77494v5.41496h-.77494Z"/><path class="cls-4" d="M290.51797,52.38286c-.41343,0-.79609-.06923-1.14991-.20864-.3519-.13941-.65764-.33363-.91531-.58361-.2596-.24998-.45958-.54323-.6038-.87878-.14422-.33459-.21729-.70091-.21729-1.09799s.07307-.7634.21729-1.09895c.14422-.33459.3442-.62784.6038-.87782.25767-.24998.56149-.4442.91147-.58361.3519-.13941.73456-.2096,1.15376-.2096.41151,0,.79417.06923,1.14414.20575s.65572.32978.91339.57976.45766.54419.59995.88166c.14037.33843.21152.70571.21152,1.1028,0,.40189-.07115.77109-.21152,1.10568-.1423.33555-.34228.6288-.59995.87878s-.56342.44323-.91339.57976-.73263.20479-1.14414.20479ZM290.51028,51.69446c.30382,0,.58265-.05096.8384-.1548.25575-.10288.47689-.24806.66533-.4365s.33459-.40862.44035-.66149.1596-.5288.1596-.82782-.05384-.57399-.1596-.82397-.2519-.47016-.44035-.66149c-.18845-.19037-.40958-.33747-.66533-.44131-.25575-.10288-.53457-.15383-.8384-.15383-.29998,0-.57688.05096-.83263.15383-.25575.10384-.47881.25094-.66918.44131-.19037.19133-.33843.41151-.4442.66149s-.1596.52496-.1596.82397.05384.57495.1596.82782.25383.47304.4442.66149.41343.33363.66918.4365c.25575.10384.53265.1548.83263.1548Z"/><path class="cls-4" d="M295.34259,52.32133v-5.41496h.63457l3.58241,4.44773h-.33267v-4.44773h.77302v5.41496h-.63457l-3.58049-4.44773h.33267v4.44773h-.77494Z"/><path class="cls-8" d="M9.80259,28.04069c3.37119,2.53784,7.02928,4.6116,10.85991,6.07544.75212.28742,1.2004-.09884,1.04427-.88872-.40537-2.0508-1.2911-2.65885-3.0763-3.83404-1.56661-1.03129-3.82591-2.49934-7.06114-5.76244-2.04999-2.06765-4.48645-4.85323-7.37682-8.70079-1.08474-1.44396-2.04354-1.15986-2.06196.64606-.05142,5.04211,4.59102,10.05587,7.67204,12.46449Z"/><path class="cls-10" d="M17.67572,20.50284c-3.86203-5.21366-7.0613-12.85449-7.64657-14.27099-.46041-1.11434-1.22449-3.0269-1.9671-2.94444-.32531.03613-.62842.45344-.89198,1.39056-1.46065,4.98798,1.75579,11.25015,4.14883,14.48215,2.34637,3.06119,5.00344,5.81149,7.92474,8.15786.01129.00759.02741.0183.04666.03111,1.407.93454,2.09507,1.46069,2.38649.38984.60257-2.2158-2.7417-5.53589-4.00106-7.2361Z"/><path class="cls-2" d="M11.65026,37.6304c3.79919,1.23724,7.6953,1.97554,11.54578,2.11853.81636.03032,1.14672-.5123.69525-1.19313-1.47128-2.21877-2.71404-2.20634-5.7082-3.08278-1.90246-.55689-4.512-1.47263-8.33651-3.5476-2.19463-1.19069-4.78933-2.7631-7.88007-4.86845-1.62339-1.10583-2.39222-.517-1.72767,1.33142,1.71941,4.78242,8.19176,8.12697,11.41141,9.24202Z"/><path class="cls-11" d="M16.58701,46.03602c3.42893-.08023,14.5304-1.32771,11.55553-3.26797h0c-1.1276-.73544-3.13692-1.16709-4.47466-1.01614-2.67533.30188-5.56197.18344-8.48489-.18727-3.90595-.49539-7.87669-1.44127-11.49448-2.43663-2.08927-.57482-2.58598.24937-1.13886,1.86222,3.10829,3.46425,9.79627,5.06347,14.03737,5.04579Z"/><path class="cls-3" d="M9.99045,50.06397c-2.1906.15847-2.3791,1.09786-.4456,2.1397,4.17062,2.24726,10.57056,1.5116,14.36959.10484,3.71034-1.4577,7.16548-3.43033,10.18658-5.99951.42295-.35968.50773-1.17844-.69199-1.41123-1.14515-.2222-2.90653.16995-3.93372.72277-2.43308,1.30945-5.23807,2.23635-8.17643,2.90406-3.717.84465-7.64743,1.27454-11.30843,1.53937Z"/></svg>