<svg width="164" height="113" viewBox="0 0 164 113" fill="none" xmlns="http://www.w3.org/2000/svg">
<path fill-rule="evenodd" clip-rule="evenodd" d="M135.981 66.6117C136.221 66.2431 136.341 65.7147 136.341 65.4455C136.341 65.0174 136.16 64.489 135.611 64.489C134.681 64.489 134.762 66.6916 133.332 66.6916C132.272 66.6916 131.762 65.9042 131.762 64.8976C131.762 64.4584 131.852 64.1 131.962 63.7313L132.782 63.8112C132.652 64.0201 132.523 64.5782 132.523 64.7982C132.523 65.2765 132.723 65.6952 133.142 65.6952C134.182 65.6952 133.882 63.4927 135.511 63.4927C136.602 63.4927 137.101 64.36 137.101 65.2672C137.101 65.7454 137.052 66.2338 136.821 66.6628L135.982 66.6127L135.981 66.6117Z" fill="white"/>
<path fill-rule="evenodd" clip-rule="evenodd" d="M131.881 62.2366V61.2997H136.98V62.2366H131.881ZM130.741 61.2402V62.2969H129.682V61.2402H130.741Z" fill="white"/>
<path fill-rule="evenodd" clip-rule="evenodd" d="M131.881 59.5845V58.6773H132.69V58.6568C132.11 58.3773 131.76 57.6995 131.76 56.9919C131.76 55.6761 132.58 55.0874 133.949 55.0874H136.979V56.0243H134.34C133.149 56.0243 132.57 56.2834 132.52 57.1015C132.52 58.1675 133.379 58.6466 134.619 58.6466H136.978V59.5835H131.879L131.881 59.5845Z" fill="white"/>
<path fill-rule="evenodd" clip-rule="evenodd" d="M132.74 50.2643C132.591 50.6237 132.521 50.9821 132.521 51.2811C132.521 52.3276 133.46 52.9163 134.43 52.9163C135.34 52.9163 136.34 52.4279 136.34 51.2217C136.34 50.9022 136.239 50.5039 136.049 50.2142L136.89 50.1445C137.069 50.5336 137.099 50.9821 137.099 51.321C137.099 52.856 135.889 53.9127 134.43 53.9127C132.88 53.9127 131.76 52.8764 131.76 51.321C131.76 50.9422 131.85 50.4537 131.96 50.1845L132.74 50.2643H132.74Z" fill="white"/>
<path fill-rule="evenodd" clip-rule="evenodd" d="M133.941 48.4097C133.281 48.34 132.522 47.9612 132.522 47.0437C132.522 46.2368 133.162 45.7781 133.941 45.7781V48.4097ZM135.831 45.1699C136.022 45.3992 136.341 46.117 136.341 46.7345C136.341 47.6222 135.651 48.4097 134.641 48.4097V44.7817C133.001 44.7817 131.762 45.3296 131.762 47.0242C131.762 48.4598 132.832 49.406 134.342 49.406C136.001 49.406 137.101 48.5787 137.101 46.7744C137.101 45.9369 136.901 45.5283 136.771 45.1699H135.832H135.831Z" fill="white"/>
<path fill-rule="evenodd" clip-rule="evenodd" d="M131.298 38.8132L132.217 39.8801L131.547 40.4085L130.147 38.7036V37.8159H137.126V38.8132H131.298Z" fill="white"/>
<path fill-rule="evenodd" clip-rule="evenodd" d="M132.318 35.2795C131.568 35.2795 130.848 34.8812 130.848 34.0436C130.848 33.206 131.658 32.817 132.318 32.817C133.097 32.817 133.717 33.2859 133.717 34.1133C133.717 34.9007 132.968 35.2795 132.318 35.2795ZM137.027 36.0168C137.137 35.768 137.247 35.0604 137.247 34.5813C137.247 32.3778 135.267 31.7603 133.378 31.7603C131.789 31.7603 130.029 32.1595 130.029 34.103C130.029 35.3687 130.899 36.3363 132.339 36.3363C133.589 36.3363 134.538 35.5888 134.538 34.2433C134.538 33.6648 134.358 33.1865 133.898 32.7176L133.888 32.6981C135.228 32.7176 136.428 33.3463 136.428 34.6416C136.428 35.0901 136.327 35.5191 136.137 35.8775L137.027 36.0168Z" fill="white"/>
<path fill-rule="evenodd" clip-rule="evenodd" d="M135.328 26.8594C136.028 26.8799 136.428 27.4574 136.428 28.126C136.428 28.7946 136.008 29.5319 135.237 29.5319C134.417 29.5319 134.228 28.9441 133.827 28.3758C134.188 27.6283 134.347 26.8307 135.327 26.8604L135.328 26.8594ZM137.247 28.2152C137.247 26.9096 136.647 25.8027 135.248 25.8027C134.318 25.8027 133.688 26.4304 133.399 27.268C132.899 26.3311 132.379 26.0117 131.599 26.0117C130.829 26.0117 130.029 26.7889 130.029 28.165C130.029 29.5412 130.809 30.4177 131.699 30.4177C132.359 30.4177 133.078 30.129 133.439 29.1122H133.459C133.749 29.9497 134.369 30.5877 135.299 30.5877C136.589 30.5877 137.248 29.3917 137.248 28.2152H137.247ZM131.838 29.4214C131.179 29.4214 130.848 28.7036 130.848 28.2449C130.848 27.7462 131.068 27.0684 131.728 27.0684C132.209 27.0684 132.478 27.1677 133.108 27.9858C132.648 28.9227 132.319 29.4214 131.838 29.4214Z" fill="white"/>
<path fill-rule="evenodd" clip-rule="evenodd" d="M134.717 21.4407V23.634L130.967 21.4611V21.4416H134.717V21.4407ZM137.126 21.4407V20.4434H135.536V19.5659H134.717V20.4434H130.147V21.8688L134.717 24.6796H135.536V21.4398H137.126V21.4407Z" fill="white"/>
<path fill-rule="evenodd" clip-rule="evenodd" d="M86.7568 70.2227H92.1632V63.4209L86.7568 63.4023V70.2227Z" fill="white"/>
<path fill-rule="evenodd" clip-rule="evenodd" d="M113.556 0.767578H7.29233C3.18981 0.767578 0 3.87458 0 7.88972V63.3867C0 67.5049 3.42358 70.2219 7.29233 70.2219H61.4679L63.0512 63.4285L8.24136 63.3988C7.79525 63.2187 7.29233 62.33 7.29233 62.33V11.8037C7.29233 11.8037 7.33424 9.56301 7.29233 8.98451C7.69653 8.45244 7.6453 7.89065 8.98549 7.89065H106.469C111.529 7.89065 113.557 7.35301 113.557 9.05879V62.2557L113.11 63.0896L112.198 63.3867L100.841 63.4452C103.115 63.5882 104.69 64.0302 105.956 64.8715C107.719 66.0313 108.934 67.9172 109.454 70.221H113.557C117.166 70.221 120.766 67.504 120.766 63.3867V7.88972C120.766 3.95722 117.612 0.767578 113.557 0.767578H113.556Z" fill="white"/>
<path fill-rule="evenodd" clip-rule="evenodd" d="M71.3447 70.2227H80.4382V63.4209L69.7158 63.4023L71.3447 70.2227Z" fill="white"/>
<path fill-rule="evenodd" clip-rule="evenodd" d="M91.0461 14.4744V32.2259L87.4195 35.7879L83.791 32.2259V14.4196L87.4195 11.6367L91.0461 14.4744Z" fill="white"/>
<path fill-rule="evenodd" clip-rule="evenodd" d="M78.8235 11.6367L71.4558 18.4255H63.8664L56.6104 11.6367H78.8235Z" fill="white"/>
<path fill-rule="evenodd" clip-rule="evenodd" d="M30.4645 15.1978L26.4831 18.4255H18.5574L14.874 15.1978L18.4932 11.6367H26.5296L30.4645 15.1978Z" fill="white"/>
<path fill-rule="evenodd" clip-rule="evenodd" d="M62.3591 18.4262L62.387 30.779L58.8983 35.2315L55.2148 30.779V11.9717L62.3591 18.4262Z" fill="white"/>
<path fill-rule="evenodd" clip-rule="evenodd" d="M79.4358 12.5273V37.7074L72.4033 30.6679V19.1676L75.6406 16.1998L79.4358 12.5273Z" fill="white"/>
<path fill-rule="evenodd" clip-rule="evenodd" d="M17.6357 19.1674V32.2259L14.1377 35.8437L10.417 32.2064V19.1674L13.9887 16.1812L17.6357 19.1674Z" fill="white"/>
<path fill-rule="evenodd" clip-rule="evenodd" d="M71.678 31.7817L78.5708 38.6504H62.8881L60.1621 35.9362L63.2783 31.7817H71.678Z" fill="white"/>
<path fill-rule="evenodd" clip-rule="evenodd" d="M17.6357 39.8684V56.0422L14.0194 59.6442L10.417 56.0422V39.8684L14.1377 36.585L17.6357 39.8684Z" fill="white"/>
<path fill-rule="evenodd" clip-rule="evenodd" d="M68.8725 40.1655L83.6257 54.7627L83.5689 59.4362H77.709L63.874 45.6422L63.8871 40.1655H68.8725Z" fill="white"/>
<path fill-rule="evenodd" clip-rule="evenodd" d="M105.927 55.9532L103.047 59.4363H91.0467L88.4688 56.1788L92.1028 52.5908L102.266 52.5917L105.927 55.9532Z" fill="white"/>
<path fill-rule="evenodd" clip-rule="evenodd" d="M51.9053 19.0761V32.1337L48.4082 35.7514L44.6875 32.1142V19.0761L48.2592 16.0889L51.9053 19.0761Z" fill="white"/>
<path fill-rule="evenodd" clip-rule="evenodd" d="M34.8819 19.0761V32.1337L31.3847 35.7514L27.6641 32.1142V19.0761L31.2348 16.0889L34.8819 19.0761Z" fill="white"/>
<path fill-rule="evenodd" clip-rule="evenodd" d="M51.8301 39.7825V55.9563L48.2137 59.5592L44.6113 55.9563V39.7825L48.332 36.499L51.8301 39.7825Z" fill="white"/>
<path fill-rule="evenodd" clip-rule="evenodd" d="M62.5166 39.7825V55.9563L58.9012 59.5592L55.2979 55.9563V39.7825L59.0195 36.499L62.5166 39.7825Z" fill="white"/>
<path fill-rule="evenodd" clip-rule="evenodd" d="M47.6442 15.1607L43.6628 18.3884H35.7381L32.0547 15.1607L35.6729 11.5996H43.7094L47.6442 15.1607Z" fill="white"/>
<path fill-rule="evenodd" clip-rule="evenodd" d="M110.356 14.4744V32.2259L106.728 35.7879L103.101 32.2259V14.4196L106.728 11.6367L110.356 14.4744Z" fill="white"/>
<path fill-rule="evenodd" clip-rule="evenodd" d="M110.44 39.8679L110.495 51.9236L106.812 55.5961L103.184 51.9236V39.8679L106.812 36.5659L110.44 39.8679Z" fill="white"/>
<path fill-rule="evenodd" clip-rule="evenodd" d="M91.008 39.7932L91.0639 51.8498L87.3805 55.5223L83.7529 51.8498V39.7932L87.3805 36.4912L91.008 39.7932Z" fill="white"/>
<path fill-rule="evenodd" clip-rule="evenodd" d="M119.753 80.3183C119.916 81.0259 119.772 81.7641 119.929 82.4336C119.9 83.4987 119.768 84.6269 119.799 85.9529C119.81 88.89 117.544 89.2939 119.071 96.9008C119.344 98.249 119.116 98.458 119.702 100.988C119.822 101.509 119.981 102.022 120.138 102.534C120.107 103.247 120.32 104.335 120.423 104.782C120.484 105.042 121.209 106.992 121.471 106.931C121.919 106.828 122.031 103.745 122.344 103.399C122.225 102.719 122.277 100.905 122.498 99.9911C122.61 99.4553 122.305 97.2917 122.616 97.1023C122.469 96.4699 122.763 96.2062 123.241 95.9007C123.595 95.8979 123.629 96.0465 123.896 97.2007C123.931 97.3493 123.888 97.6733 123.94 97.8962C123.974 98.0448 124.313 98.3196 124.382 98.6177C124.598 99.5481 124.261 100.135 124.411 101.119C124.28 101.737 124.455 102.325 124.257 103.508C124.481 104.475 124.05 107.2 123.879 108.847C123.226 110.095 123.524 111.555 121.825 112.024C120.812 112.062 120.259 111.718 120.004 110.954C119.596 110.381 119.304 110.135 119.076 109.325C118.594 108.26 117.85 106.237 117.532 104.859C117.05 102.775 116.7 102.11 116.631 101.813C116.588 101.626 116.702 101.443 116.281 99.6196C115.712 97.1635 115.64 97.0224 115.564 97.041C115.34 97.092 113.937 99.1795 113.676 99.2389C113.602 99.2566 113.481 99.2445 113.454 99.1331C113.429 99.0216 113.534 98.8015 113.448 98.4292C113.353 98.0188 113.196 97.5071 113.092 97.0605C113.048 96.8738 114.627 94.8644 114.826 93.6823C115.013 92.62 115.352 92.3851 115.455 91.3033C114.386 86.6883 114.633 86.3968 114.375 84.7699C114.447 84.4013 114.573 81.5496 114.517 81.1318C114.892 79.8689 114.639 78.437 115.17 76.3162C115.17 75.2966 115.561 74.7748 115.919 73.9483C116.241 73.6391 116.511 73.1061 116.884 73.0207C118.004 72.7635 118.311 73.2417 118.509 74.0978C118.791 74.4637 119 75.1991 119.441 77.0971C119.776 78.5494 119.511 79.2755 119.754 80.3183H119.753ZM117.427 87.5955C117.614 87.5528 117.66 87.0718 117.624 86.9233C117.539 86.55 118.516 86.0123 118.228 81.8848C118.073 81.2144 118.297 80.6535 117.754 78.3089C117.72 78.1594 117.674 78.1315 117.6 78.1483C117.413 78.1919 117.384 79.7658 117.063 81.0937C116.475 82.7967 116.988 83.1495 116.713 83.9964C116.911 84.8516 116.957 85.3911 116.905 85.6771C116.881 85.9176 117.034 86.745 117.095 87.0059C117.198 87.4526 117.315 87.6215 117.428 87.5955H117.427Z" fill="white"/>
<path fill-rule="evenodd" clip-rule="evenodd" d="M139.119 90.6387C139.23 91.1225 139.408 91.5524 139.444 91.701C139.47 91.8124 139.4 92.0251 139.452 92.2479C139.486 92.3965 139.595 92.5284 139.647 92.7521C139.733 93.1236 139.208 93.4012 138.909 93.9797C137.999 94.9733 137.507 95.4004 137.023 95.5119C136.874 95.5462 136.624 95.4859 136.512 95.5119C136.4 95.5369 136.164 95.7087 135.978 95.7524C135.456 95.8721 134.43 95.5202 134.014 94.9111C133.239 94.6176 133.192 92.5516 132.67 92.6713C132.408 92.7317 131.645 93.8479 131.487 94.3539C130.862 94.5378 130.743 95.8972 129.716 96.7218C129.202 97.8992 128.208 98.3626 127.74 99.0581C127.226 99.2159 127.025 99.5363 126.69 99.6133C126.354 99.6913 125.466 99.4239 125.199 99.2893C124.774 98.6421 124.714 98.3821 124.662 98.1592C124.489 97.4145 124.743 96.8072 124.699 96.6206C124.664 96.472 124.312 96.4748 124.2 96.5008C123.743 94.5285 123.631 94.0447 124.274 93.4263C124.88 92.8162 125.311 91.6193 125.694 91.4131C126.086 90.3824 126.248 90.0704 126.891 89.452C127.114 88.5383 128.439 87.6459 129.085 86.3598C129.507 86.1444 129.823 85.6411 130.093 85.1081C131.182 84.0347 131.902 82.7319 133.171 82.4394C133.917 82.2676 134.105 82.7347 134.555 82.9826C134.642 83.8648 134.179 84.7553 133.419 85.2047C133.165 86.3209 132.433 86.7248 131.877 87.7156C131.757 88.2133 131.394 88.6887 130.892 89.2356C130.686 89.8717 130.263 90.596 129.858 90.8848C129.666 91.7521 128.652 92.8088 128.27 93.8766C128.283 94.2657 127.972 94.4551 128.076 94.9018C128.822 94.73 129.053 93.8544 129.854 93.2387C129.925 92.8691 130.618 91.6118 131.551 90.8876C131.895 89.829 132.827 89.1047 133.229 88.464C133.688 88.2393 134.166 88.0907 134.427 88.0313C135.098 87.8762 135.038 89.1456 135.506 89.4687C135.609 89.9153 135.502 90.1364 135.667 90.843C135.848 91.6249 136.531 92.3696 137.389 92.1718C138.098 92.0084 138.108 91.5357 138.369 91.4754C138.86 91.0491 138.794 90.5941 138.981 90.5505L139.119 90.6369V90.6387Z" fill="white"/>
<path fill-rule="evenodd" clip-rule="evenodd" d="M138.839 90.7811C139.284 90.3261 139.546 89.2471 140.092 88.8859C140.229 88.4615 141.082 86.5403 141.628 86.181C141.731 85.608 141.846 85.4251 142.159 85.0778C143.13 84.855 143.724 84.8745 144.603 85.6136C144.795 85.765 145.596 87.6973 145.845 88.7773C146.25 88.9973 146.586 90.4496 147.632 90.2082C148.08 90.1051 148.355 89.7671 148.909 89.444C149.064 89.0948 149.354 88.4783 150.052 87.9267C150.225 88.6705 150.331 89.47 150.503 90.2147C150.632 90.7728 148.297 93.4266 147.29 93.6588C147.029 93.7182 146.107 93.8138 146.071 93.8213C145.473 93.4498 144.597 93.5724 143.5 91.5509C142.37 90.9093 142.573 89.9213 141.715 90.12C141.304 90.2147 140.308 91.8555 140.227 92.187C139.739 92.4563 139.661 93.1406 139.371 93.2465C139.233 93.161 139.191 92.9753 139.139 92.7515C139.061 92.4163 138.855 91.0133 138.84 90.7811H138.839ZM144.41 73.7409C144.522 74.2256 144.676 75.9147 144.418 76.327C144.486 78.1535 143.289 78.5862 142.709 79.3068C141.366 79.616 141.17 79.6215 141.017 79.304C140.803 78.8833 140.561 78.8601 140.422 78.2649C140.146 77.0735 140.813 75.7048 141.801 75.0474C141.824 74.2971 142.998 73.5951 143.595 73.4577C144.08 73.3463 144.149 73.6443 144.408 73.7409H144.41Z" fill="white"/>
<path fill-rule="evenodd" clip-rule="evenodd" d="M158.955 89.2091C158.972 89.2834 159.064 89.3409 159.214 89.3066C159.736 89.1868 162.294 85.9721 162.226 85.674C162.2 85.5616 162.306 85.3416 162.456 85.3072C162.642 85.2636 162.697 85.3295 162.834 85.9247C163.054 86.1884 163.168 86.5144 163.262 86.9239C163.374 87.4076 162.8 87.8143 162.882 88.3436C162.145 89.0623 160.703 91.1572 160.15 91.4813C159.426 91.9214 158.584 93.2131 157.727 93.4109C156.457 93.7034 156.13 93.3078 156.01 92.7868C155.914 92.3773 155.935 91.2751 156.22 90.4645C156.073 89.8321 156.377 87.4095 156.11 86.2562C155.921 85.4372 155.259 83.9431 154.327 84.1586C153.506 84.3471 152.025 88.1375 151.514 88.6473C151.315 88.8107 150.744 90.5889 150.484 90.6484C150.409 90.666 150.363 90.6372 150.345 90.5629C150.319 90.4506 150.377 90.3596 150.351 90.2481C150.309 90.0615 150.082 89.7606 149.832 88.6816C149.712 88.1607 150.581 87.3333 150.616 86.4623C151.644 84.6191 151.615 83.646 151.962 83.4482C151.868 83.0387 151.638 82.8948 151.534 82.4491C151.448 82.0767 152.149 81.8771 152.545 81.0404C152.826 80.8974 153.062 80.2158 153.771 80.0533C155.749 79.5974 156.2 80.8658 156.949 81.046C157.389 81.4156 157.466 81.7508 158.017 82.0943C158.615 82.9765 158.887 83.815 159.034 84.4473C159.455 86.2711 158.612 87.7196 158.957 89.2081L158.955 89.2091Z" fill="white"/>
<path fill-rule="evenodd" clip-rule="evenodd" d="M113.719 97.0016L118.201 92.303L122.455 88.52L122.684 92.1879L113.719 99.2933V97.0016Z" fill="white"/>
<path d="M68.5199 85.0429H64.0662L64.9771 80.6498C65.5033 78.1668 65.9345 74.8249 66.1739 71.6733C66.5306 75.1266 66.8873 77.3636 67.4665 80.0769L68.5199 85.0429ZM63.0604 63.6699L55.6377 95.3091H61.9596L63.0613 89.9615H69.4791L70.6284 95.3091H77.3331L69.7185 63.6699H63.0613H63.0604Z" stroke="white" stroke-width="0.870466" stroke-miterlimit="3.86"/>
<path d="M80.4336 95.308H86.7555V63.6382H80.4336V95.308ZM98.4847 68.4259C100.593 68.4259 100.971 68.4733 101.598 68.7119C102.89 69.2848 103.609 70.764 103.609 72.9137C103.609 75.588 102.077 77.2111 99.4421 77.2111C99.4421 77.2111 98.8674 77.1628 98.4847 77.1155V68.4259ZM92.1907 63.6512L92.1619 95.308H98.4847V80.6013L104.088 95.308H110.744L105.188 80.7926C108.253 78.9299 109.738 76.3995 109.738 72.9137C109.738 69.4278 108.348 66.5149 105.955 64.9391C104.374 63.8889 103.058 63.6568 99.0379 63.6512H92.1907Z" stroke="white" stroke-width="1.16009" stroke-miterlimit="3.86"/>
<path fill-rule="evenodd" clip-rule="evenodd" d="M128.678 6.03386C128.678 3.14136 130.773 0.902572 133.59 0.902572C136.374 0.902572 138.469 3.14229 138.469 6.03386C138.469 8.92543 136.374 11.1661 133.59 11.1661C130.806 11.1661 128.678 8.92636 128.678 6.03386ZM127.521 6.03386C127.521 9.36093 130.236 12.0686 133.573 12.0686C136.91 12.0686 139.625 9.36093 139.625 6.03386C139.625 2.70679 136.909 0 133.573 0C130.236 0 127.521 2.70771 127.521 6.03386ZM131.259 9.5615H132.417V6.43593H133.389L135.367 9.5615H136.591L134.579 6.43593C135.685 6.43593 136.407 5.61693 136.407 4.47943C136.407 3.14229 135.602 2.49043 133.976 2.49043H131.259V9.5615ZM132.417 3.393H133.791C134.529 3.393 135.25 3.62793 135.25 4.42929C135.25 5.34857 134.68 5.53243 133.791 5.53243H132.417V3.39207V3.393Z" fill="white"/>
</svg>
